<svg width="48" height="50" viewBox="0 0 48 50" fill="none" xmlns="http://www.w3.org/2000/svg">
<path fill-rule="evenodd" clip-rule="evenodd" d="M24 50C37.2548 50 48 38.8071 48 25C48 11.1929 37.2548 0 24 0C10.7452 0 0 11.1929 0 25C0 38.8071 10.7452 50 24 50ZM34.5491 15.9722C34.7341 13.7822 32.5139 14.6839 32.5139 14.6839C30.8746 15.3908 29.184 16.1092 27.4751 16.8353C22.1764 19.0867 16.7022 21.4126 12.0389 23.7018C9.51039 24.668 10.9905 25.6343 10.9905 25.6343L14.9992 26.9225C16.8493 27.5022 17.8361 26.8581 17.8361 26.8581L26.4701 20.7388C29.5536 18.5487 28.8136 20.3523 28.0736 21.1253L21.598 27.5666C20.6112 28.4684 21.1046 29.2414 21.5364 29.6278C22.7598 30.7523 25.7696 32.8098 27.0836 33.708C27.4255 33.9417 27.6526 34.0969 27.7035 34.1368C28.0119 34.3945 29.677 35.5539 30.7871 35.2963C31.8972 35.0386 32.0205 33.5571 32.0205 33.5571L33.5006 23.4442C33.7226 21.6885 33.9773 20.001 34.1807 18.6532C34.3728 17.3802 34.5191 16.4103 34.5491 15.9722Z" fill="#E3DEFE"/>
</svg>
