<svg width="64" height="64" viewBox="0 0 64 64" fill="none" xmlns="http://www.w3.org/2000/svg">
<circle cx="32" cy="32" r="32" fill="#9A60A9"/>
<g clip-path="url(#clip0_91_15)">
<path d="M31.0013 8.37211L11.076 28.2974C10.8067 28.5668 10.6747 28.9201 10.6773 29.2721C10.6773 29.2828 10.672 29.2908 10.672 29.3014V49.3014C10.672 50.0374 11.2693 50.6348 12.0053 50.6348C12.016 50.6348 12.024 50.6294 12.0347 50.6294C12.3867 50.6321 12.74 50.5001 13.0093 50.2308L32.004 31.2361L51.04 50.2721C51.5747 50.8068 52.4413 50.8068 52.976 50.2721C53.2933 49.9548 53.3987 49.5241 53.34 49.1121V29.4961C53.3987 29.0841 53.2933 28.6534 52.976 28.3361L33.0133 8.37345C32.736 8.09611 32.3707 7.96945 32.0067 7.98011C31.644 7.96945 31.2787 8.09611 31.0013 8.37211ZM50.672 29.9041V46.0321L33.0133 28.3734C32.736 28.0961 32.3707 27.9694 32.0067 27.9801C31.644 27.9694 31.2787 28.0961 31.0013 28.3734L13.3387 46.0348V29.9001L32.004 11.2361L50.672 29.9041Z" fill="#EDC96C"/>
</g>
<defs>
<clipPath id="clip0_91_15">
<rect width="42.6667" height="42.6667" fill="white" transform="translate(10.6666 8)"/>
</clipPath>
</defs>
</svg>
