<svg width="48" height="52" viewBox="0 0 48 52" fill="none" xmlns="http://www.w3.org/2000/svg">
<g clip-path="url(#clip0_31_20)">
<path d="M31.367 0H16.633C3.1874 0 0 3.38661 0 17.6725V33.3275C0 47.6134 3.1874 51 16.633 51H31.367C44.8126 51 48 47.6134 48 33.3275V17.6725C48 3.38661 44.7811 0 31.367 0ZM38.7498 36.381H35.2654C33.9454 36.381 33.5389 35.2686 31.1645 32.7123C29.1021 30.5879 28.1886 30.3058 27.6801 30.3058C26.9617 30.3058 26.7577 30.521 26.7577 31.568V34.9132C26.7577 35.8104 26.4922 36.3491 24.2572 36.3491C20.5614 36.3491 16.4605 33.9745 13.5851 29.5504C9.24871 23.0672 8.06225 18.2112 8.06225 17.2072C8.06225 16.6669 8.26474 16.1617 9.24121 16.1617H12.7331C13.6166 16.1617 13.9526 16.5936 14.2961 17.5976C16.0225 22.8935 18.8979 27.5328 20.0844 27.5328C20.5224 27.5328 20.7249 27.3176 20.7249 26.1303V20.6607C20.5914 18.1379 19.3419 17.9212 19.3419 17.0255C19.3419 16.5936 19.6779 16.1617 20.2164 16.1617H25.7077C26.4502 16.1617 26.7232 16.5936 26.7232 17.5227V24.9016C26.7232 25.6984 27.0592 25.9805 27.2616 25.9805C27.6996 25.9805 28.0746 25.6984 28.8861 24.8346C31.394 21.8464 33.191 17.2391 33.191 17.2391C33.425 16.6988 33.8314 16.1936 34.7149 16.1936H38.2068C39.2538 16.1936 39.4878 16.7657 39.2538 17.5626C38.8158 19.7204 34.5424 26.1287 34.5424 26.1287C34.1749 26.7758 34.0339 27.0578 34.5424 27.7798C34.9174 28.3201 36.1369 29.4404 36.9483 30.4445C38.4408 32.2453 39.5883 33.7562 39.8943 34.8016C40.2377 35.8391 39.7308 36.3794 38.7453 36.3794L38.7498 36.381Z" fill="#E3DEFE"/>
</g>
<defs>
<clipPath id="clip0_31_20">
<rect width="47.7065" height="51.3" fill="white"/>
</clipPath>
</defs>
</svg>
