<svg width="49" height="50" viewBox="0 0 49 50" fill="none" xmlns="http://www.w3.org/2000/svg">
<g clip-path="url(#clip0_31_22)">
<path fill-rule="evenodd" clip-rule="evenodd" d="M24.6467 50C37.9015 50 48.6467 38.8071 48.6467 25C48.6467 11.1929 37.9015 0 24.6467 0C11.3919 0 0.646729 11.1929 0.646729 25C0.646729 38.8071 11.3919 50 24.6467 50ZM34.1328 14.4964C31.663 11.9205 28.3782 10.5014 24.8787 10.5C17.6683 10.5 11.7993 16.6126 11.7967 24.1261C11.7959 26.5279 12.3982 28.8723 13.5428 30.9384L11.6867 38L18.6216 36.1053C20.5323 37.1911 22.6839 37.7631 24.873 37.764H24.8782C32.0881 37.764 37.9571 31.6505 37.9602 24.1374C37.9623 20.4957 36.603 17.0723 34.1328 14.4964ZM24.8791 35.4623H24.8747C22.9235 35.4614 21.0098 34.9153 19.3406 33.8835L18.9434 33.6381L14.8279 34.7625L15.9262 30.5829L15.6678 30.1541C14.5795 28.3508 14.0046 26.2669 14.0055 24.1266C14.0077 17.8817 18.8857 12.8013 24.883 12.8013C27.7872 12.8022 30.5171 13.9821 32.57 16.1229C34.623 18.2636 35.7527 21.1092 35.7518 24.1357C35.7496 30.3815 30.872 35.4623 24.8791 35.4623ZM30.8429 26.9794C30.5159 26.8089 28.9091 25.9854 28.6092 25.8717C28.3098 25.758 28.0915 25.7012 27.8737 26.0422C27.6558 26.3833 27.0294 27.1499 26.8387 27.3773C26.6479 27.6046 26.4572 27.6328 26.1306 27.4623C26.0772 27.4344 26.0043 27.4015 25.9144 27.3608C25.454 27.1528 24.5462 26.7428 23.502 25.7722C22.5303 24.8691 21.8742 23.7542 21.6834 23.4136C21.4927 23.0726 21.6629 22.8884 21.8266 22.7188C21.9247 22.6169 22.0374 22.4739 22.1501 22.331C22.2063 22.2597 22.2625 22.1884 22.3168 22.1222C22.4553 21.9537 22.5155 21.8258 22.5972 21.6525C22.6119 21.6214 22.6272 21.5888 22.6438 21.5543C22.7529 21.327 22.6984 21.1283 22.6167 20.9578C22.5622 20.8439 22.2524 20.0583 21.9714 19.3461C21.8318 18.992 21.6992 18.6559 21.6088 18.4296C21.3745 17.8435 21.1371 17.845 20.9466 17.8462C20.9213 17.8464 20.8968 17.8466 20.8733 17.8453C20.6829 17.8353 20.4647 17.8335 20.2469 17.8335C20.029 17.8335 19.675 17.9185 19.3751 18.2596C19.3558 18.2816 19.3342 18.3055 19.3108 18.3316C18.9702 18.7104 18.231 19.5324 18.231 21.1001C18.231 22.772 19.3965 24.3874 19.5647 24.6206L19.5659 24.6222C19.5765 24.637 19.5955 24.6655 19.6227 24.7061C20.0129 25.2891 22.0842 28.3845 25.1498 29.7635C25.9299 30.1145 26.5384 30.3238 27.0133 30.4806C27.7964 30.7398 28.5088 30.7034 29.0723 30.6157C29.7005 30.5179 31.0061 29.7922 31.2785 28.9969C31.5509 28.2017 31.5509 27.5196 31.4693 27.3777C31.4034 27.2629 31.2489 27.185 31.02 27.0697C30.9651 27.0421 30.906 27.0124 30.8429 26.9794Z" fill="#E3DEFE"/>
</g>
<defs>
<clipPath id="clip0_31_22">
<rect width="48" height="50" fill="white" transform="translate(0.646729)"/>
</clipPath>
</defs>
</svg>
